<svg xmlns="http://www.w3.org/2000/svg" width="75.854" height="75.894" viewBox="0 0 75.854 75.894">
  <g id="dashboard" transform="translate(-47.5 464.717)">
    <path id="Path_251" data-name="Path 251" d="M53.857-463.57a8.376,8.376,0,0,0-3.506,2.065,9.226,9.226,0,0,0-1.281,1.975l-.569,1.192v23.313l.569,1.192a6.838,6.838,0,0,0,3.4,3.488l1.352.659H77.17l1.353-.659a6.838,6.838,0,0,0,3.4-3.488l.569-1.192v-23.331l-.658-1.353a6.839,6.839,0,0,0-3.488-3.4l-1.192-.569-11.3-.036C59.391-463.731,54.248-463.659,53.857-463.57Zm22.921,2.865a5.286,5.286,0,0,1,2.741,2.741c.3,1.05.3,21.516,0,22.565a5.285,5.285,0,0,1-2.741,2.741c-.534.16-3.524.214-11.283.214s-10.749-.054-11.283-.214a5.285,5.285,0,0,1-2.741-2.741c-.3-1.05-.3-21.515,0-22.565a5.675,5.675,0,0,1,2.634-2.723C55.031-460.972,75.8-460.99,76.778-460.705Z" transform="translate(0 0)" fill="#8967b3" stroke="#8967b3" stroke-width="2"/>
    <path id="Path_252" data-name="Path 252" d="M277.857-463.57a8.378,8.378,0,0,0-3.506,2.065,9.22,9.22,0,0,0-1.281,1.975l-.57,1.192v23.313l.57,1.192a6.839,6.839,0,0,0,3.4,3.488l1.352.659H301.17l1.352-.659a6.838,6.838,0,0,0,3.4-3.488l.57-1.192v-23.331l-.658-1.353a6.839,6.839,0,0,0-3.488-3.4l-1.192-.569-11.3-.036C283.391-463.731,278.248-463.659,277.857-463.57Zm22.921,2.865a5.286,5.286,0,0,1,2.741,2.741c.3,1.05.3,21.516,0,22.565a5.286,5.286,0,0,1-2.741,2.741c-1.05.3-21.516.3-22.565,0a5.286,5.286,0,0,1-2.741-2.741c-.3-1.05-.3-21.515,0-22.565a5.676,5.676,0,0,1,2.634-2.723C279.031-460.972,299.8-460.99,300.778-460.705Z" transform="translate(-184.137 0)" fill="#8967b3" stroke="#8967b3" stroke-width="2"/>
    <path id="Path_253" data-name="Path 253" d="M53.857-239.57a8.379,8.379,0,0,0-3.506,2.064,9.236,9.236,0,0,0-1.281,1.975l-.569,1.192v23.313l.569,1.192a6.839,6.839,0,0,0,3.4,3.488l1.352.659H77.17l1.353-.659a6.839,6.839,0,0,0,3.4-3.488l.569-1.192v-23.331l-.658-1.352a6.839,6.839,0,0,0-3.488-3.4l-1.192-.57-11.3-.036C59.391-239.731,54.248-239.659,53.857-239.57Zm22.921,2.865a5.285,5.285,0,0,1,2.741,2.741c.3,1.05.3,21.515,0,22.565a5.286,5.286,0,0,1-2.741,2.741c-1.05.3-21.515.3-22.565,0a5.286,5.286,0,0,1-2.741-2.741c-.3-1.05-.3-21.515,0-22.565a5.674,5.674,0,0,1,2.634-2.723C55.031-236.972,75.8-236.99,76.778-236.705Z" transform="translate(0 -184.137)" fill="#8967b3" stroke="#8967b3" stroke-width="2"/>
    <path id="Path_254" data-name="Path 254" d="M287.031-239.706a19.165,19.165,0,0,0-7.225,2.865,21.433,21.433,0,0,0-4.84,5.214,15.07,15.07,0,0,0-2.367,8.809,14.137,14.137,0,0,0,1.157,6.389,17.638,17.638,0,0,0,9.058,9.289,14.872,14.872,0,0,0,6.762,1.3,15.2,15.2,0,0,0,8.809-2.367,19.6,19.6,0,0,0,5.8-5.8,15.23,15.23,0,0,0,2.367-8.809,15.255,15.255,0,0,0-2.367-8.809,19.9,19.9,0,0,0-5.695-5.748A17.428,17.428,0,0,0,287.031-239.706Zm5.926,3.061a13.919,13.919,0,0,1,4.324,1.9,14.2,14.2,0,0,1,2.331,21.96,14.2,14.2,0,0,1-21.96-2.331,14.154,14.154,0,0,1,1.068-16.871,14.373,14.373,0,0,1,8.186-4.823A18.164,18.164,0,0,1,292.957-236.645Z" transform="translate(-184.217 -184.001)" fill="#8967b3" stroke="#8967b3" stroke-width="2"/>
  </g>
</svg>
