<svg xmlns="http://www.w3.org/2000/svg" width="36.776" height="36.796" viewBox="0 0 36.776 36.796">
  <g id="python" transform="translate(-56 456.216)">
    <path id="Path_19" data-name="Path 19" d="M69.959-455.642a4.221,4.221,0,0,0-1.766,1.04,4.652,4.652,0,0,0-.646,1l-.287.6-.027,2.932-.027,2.932-4.008.027-4.008.027-.6.287a3.446,3.446,0,0,0-1.757,1.713l-.332.681v11.764l.332.681a3.446,3.446,0,0,0,1.757,1.713l.6.287,2.573.027,2.573.027.027,3.658.027,3.649.332.681a3.446,3.446,0,0,0,1.757,1.713l.6.287H78.826l.6-.287a3.446,3.446,0,0,0,1.757-1.713l.332-.681.027-2.932.027-2.941,4.008-.027,4.008-.027.6-.287a3.446,3.446,0,0,0,1.757-1.713l.332-.681v-11.764l-.332-.681a3.446,3.446,0,0,0-1.757-1.713l-.6-.287-2.573-.027-2.573-.027-.027-3.658-.027-3.649-.332-.681a3.446,3.446,0,0,0-1.757-1.713l-.6-.287L76-455.714C72.747-455.723,70.156-455.687,69.959-455.642ZM81.507-454.2a2.663,2.663,0,0,1,1.381,1.381c.152.52.152,12.275,0,12.786a2.654,2.654,0,0,1-1.121,1.291c-.323.161-.726.17-7.523.215l-7.173.045-.681.332a3.446,3.446,0,0,0-1.713,1.757l-.287.6-.027,2.215-.036,2.224H62.041a16.646,16.646,0,0,1-2.663-.108A2.663,2.663,0,0,1,58-432.841c-.152-.529-.152-10.84,0-11.369a2.663,2.663,0,0,1,1.381-1.381c.278-.081,2.385-.108,8.545-.108H76.1l.215-.224a.7.7,0,0,0,.224-.493.7.7,0,0,0-.224-.493l-.215-.224H68.65v-2.654a20.4,20.4,0,0,1,.108-3.031,2.859,2.859,0,0,1,1.327-1.372C70.55-454.333,81.014-454.342,81.507-454.2Zm7.89,10.042a2.663,2.663,0,0,1,1.381,1.381c.152.529.152,10.84,0,11.37a2.663,2.663,0,0,1-1.381,1.381c-.278.081-2.385.108-8.545.108H72.675l-.215.224a.659.659,0,0,0,0,.986l.215.224h7.451v2.654a20.4,20.4,0,0,1-.108,3.031,2.663,2.663,0,0,1-1.381,1.381c-.529.152-10.84.152-11.369,0a2.663,2.663,0,0,1-1.381-1.381c-.152-.52-.152-12.275,0-12.786a2.654,2.654,0,0,1,1.121-1.291c.323-.161.726-.17,7.514-.215l7.173-.045.6-.287a3.446,3.446,0,0,0,1.757-1.713l.332-.681.027-2.224.036-2.224h2.286A16.65,16.65,0,0,1,89.4-444.156Z" transform="translate(0 0)" fill="#8967b3" stroke="#8967b3" stroke-width="1"/>
    <path id="Path_20" data-name="Path 20" d="M217.031-415.779a1.419,1.419,0,0,0-.412,2.3,1.42,1.42,0,0,0,2.394-1.309A1.458,1.458,0,0,0,217.031-415.779Z" transform="translate(-145.378 -36.249)" fill="#8967b3" stroke="#8967b3" stroke-width="1"/>
    <path id="Path_21" data-name="Path 21" d="M265.031-127.9a1.419,1.419,0,0,0-.412,2.3,1.352,1.352,0,0,0,1.991,0A1.421,1.421,0,0,0,265.031-127.9Z" transform="translate(-189.074 -298.302)" fill="#8967b3" stroke="#8967b3" stroke-width="1"/>
  </g>
</svg>
