<svg xmlns="http://www.w3.org/2000/svg" width="31.941" height="32.557" viewBox="0 0 31.941 32.557">
  <g id="ui_ux_design" transform="translate(-5.956 512.593)">
    <path id="Path_25" data-name="Path 25" d="M32.108-511.961c-.129.129-.16.234-.21.721-.092.937-.752,1.929-2.465,3.71a7.268,7.268,0,0,0-1.732,2.342,5.455,5.455,0,0,0-.284,3.353,4.13,4.13,0,0,0,1.609,2.323.993.993,0,0,1,.308.253c0,.086-.21.148-.894.277a12,12,0,0,1-3.075.037,4.472,4.472,0,0,1-3.347-2.089c-.82-1.664.259-3.729,2.724-5.2a2.827,2.827,0,0,0,1.547-1.806,2.686,2.686,0,0,0-1.319-2.977,3.479,3.479,0,0,0-1.522-.382,15.2,15.2,0,0,0-8.289,1.263,10.943,10.943,0,0,0-1.707.968.479.479,0,0,0-.018.659c.185.185.444.154.894-.123a13.858,13.858,0,0,1,5.2-1.812,21.339,21.339,0,0,1,3.969-.006,2.62,2.62,0,0,1,1.042.253,1.664,1.664,0,0,1,.881,1.535,1.459,1.459,0,0,1-.709,1.331c-.185.117-.616.407-.961.635a6.628,6.628,0,0,0-2.7,3.18,4.68,4.68,0,0,0-.16,2.1,4.455,4.455,0,0,0,3.088,3.075,9.8,9.8,0,0,0,4.955.216,2.454,2.454,0,0,1,.444-.074c.031.037.216,3.075.191,3.149a.341.341,0,0,1-.222.129,2.9,2.9,0,0,0-1.134.783,3.421,3.421,0,0,0-.394.641,1.852,1.852,0,0,0-.173,1.042,1.822,1.822,0,0,0,.2,1.091,3.332,3.332,0,0,0,.487.727,3.013,3.013,0,0,0,1.374.77c.24.037.247.043.277.357.037.3.345,4.678.345,4.844a9.971,9.971,0,0,1-2.126,1.337,13.809,13.809,0,0,1-6.379,1.467,13.533,13.533,0,0,1-5.947-1.276A14.413,14.413,0,0,1,7.511-494.52a18.1,18.1,0,0,1,.031-3.7,14.944,14.944,0,0,1,2.336-6.163,15.152,15.152,0,0,1,2.65-2.964,2.844,2.844,0,0,0,.462-.462.446.446,0,0,0-.431-.641,9.485,9.485,0,0,0-2.706,2.527,15.66,15.66,0,0,0-3.242,7.55,20.137,20.137,0,0,0,0,4.222,15.4,15.4,0,0,0,13.047,13.109,20.19,20.19,0,0,0,4.314,0,18.523,18.523,0,0,0,2.958-.733,18.555,18.555,0,0,0,2.927-1.393c.327-.2.505-.284.53-.24a5.81,5.81,0,0,1,.086.875c.049.894.117,1.128.444,1.461a2.18,2.18,0,0,0,3.186-.351,21.389,21.389,0,0,0,.351-3.347l.247-3.125.327-.555a15.055,15.055,0,0,0,2.139-7.525,3.7,3.7,0,0,0-.37-1.9,4.7,4.7,0,0,0-.937-1.294l-.216-.185.468-.5a4.638,4.638,0,0,0,1.116-1.972,6.65,6.65,0,0,0-.357-3.846,19.874,19.874,0,0,0-3.914-6.028C32.552-512.122,32.336-512.189,32.108-511.961Zm1.473,2.471a14.255,14.255,0,0,1,2.749,5.3,6.234,6.234,0,0,1,0,2.114,3.868,3.868,0,0,1-.943,1.627l-.394.4-2.595-.043c-2.866-.049-2.718-.025-3.2-.481a3.793,3.793,0,0,1-.733-3.981,5,5,0,0,1,1.393-2.04,24.367,24.367,0,0,0,2.022-2.317,6.99,6.99,0,0,0,.807-1.522l.043-.142.154.185C32.965-510.291,33.279-509.884,33.581-509.49ZM34.635-499.1c0,.1-.3,3.951-.339,4.314l-.043.388H30.567v-.173c0-.092-.068-1.122-.154-2.293s-.154-2.163-.154-2.206a9.353,9.353,0,0,1,2.188-.074C33.649-499.142,34.635-499.124,34.635-499.1Zm1.288,1.578a3.379,3.379,0,0,1,.29,2.015,12.747,12.747,0,0,1-.468,3,15.128,15.128,0,0,1-.838,2.287c-.012-.012.117-1.781.284-3.932s.308-3.938.308-3.969C35.5-498.23,35.732-497.9,35.923-497.521Zm-6.138,5.1c.055.857.092,1.572.08,1.59-.055.055-.32-.049-.585-.222a1.674,1.674,0,0,1-.24-2.576c.271-.253.493-.4.573-.376A10.555,10.555,0,0,1,29.784-492.424Zm4.388-.666c-.025.216-.228,2.817-.462,5.781s-.438,5.442-.462,5.5c-.074.185-.462.327-.894.32-.45,0-.777-.136-.863-.351-.031-.074-.222-2.619-.425-5.652s-.388-5.621-.407-5.75l-.031-.228h3.581Z" fill="#8967b3" stroke="#8967b3" stroke-width="1"/>
    <path id="Path_26" data-name="Path 26" d="M91.117-410.771a3.108,3.108,0,0,0-1.775,1.454,3.071,3.071,0,0,0,1.374,4.271,2.072,2.072,0,0,0,1.189.29,2.81,2.81,0,0,0,1.732-.4,3.124,3.124,0,0,0,.968-4.407,3.222,3.222,0,0,0-1.387-1.134A3.457,3.457,0,0,0,91.117-410.771Zm1.861.992a2.526,2.526,0,0,1,1.048,1.079,2.42,2.42,0,0,1,.049,1.627,2.42,2.42,0,0,1-1.1,1.2,1.6,1.6,0,0,1-.937.173,1.456,1.456,0,0,1-.974-.21,2.149,2.149,0,0,1-.8-3.125,2.13,2.13,0,0,1,1.011-.8A2.231,2.231,0,0,1,92.979-409.779Z" transform="translate(-77.376 -94.953)" fill="#8967b3" stroke="#8967b3" stroke-width="1"/>
    <path id="Path_27" data-name="Path 27" d="M55.742-290.543a3.131,3.131,0,0,0-2.465,2.354,3.131,3.131,0,0,0,2.28,3.716,3.123,3.123,0,0,0,3.507-1.646,3.079,3.079,0,0,0-1.793-4.308A3.728,3.728,0,0,0,55.742-290.543Zm1.368,1.06a2.166,2.166,0,0,1,1.307,2.354,2.2,2.2,0,0,1-1.276,1.627,2.162,2.162,0,0,1-1.707-.006,2.309,2.309,0,0,1-1.116-1.116,2.178,2.178,0,0,1-.012-1.713A2.162,2.162,0,0,1,57.11-289.483Z" transform="translate(-43.818 -207.859)" fill="#8967b3" stroke="#8967b3" stroke-width="1"/>
    <path id="Path_28" data-name="Path 28" d="M126.412-185.829a3,3,0,0,0-1.855,1.578,2.772,2.772,0,0,0-.29,1.923,3.049,3.049,0,0,0,3.032,2.545,2.893,2.893,0,0,0,2.2-.918,2.948,2.948,0,0,0,.9-2.348,3.1,3.1,0,0,0-2.256-2.8A3.656,3.656,0,0,0,126.412-185.829Zm1.818,1.011a2.151,2.151,0,0,1,1.177,2.453,2.15,2.15,0,0,1-2.262,1.646,2.118,2.118,0,0,1-1.8-1.27,2.13,2.13,0,0,1,.2-2.126A2.183,2.183,0,0,1,128.23-184.818Z" transform="translate(-110.451 -306.047)" fill="#8967b3" stroke="#8967b3" stroke-width="1"/>
    <path id="Path_29" data-name="Path 29" d="M247.113-156.567a3.757,3.757,0,0,0-.789.271,3.092,3.092,0,0,0-1.128,4.672,3.116,3.116,0,0,0,3.8.906c.567-.271.832-.518.832-.777a.435.435,0,0,0-.431-.456,1.422,1.422,0,0,0-.549.234,2.145,2.145,0,0,1-2.8-.364,1.912,1.912,0,0,1-.518-1.535,1.952,1.952,0,0,1,.6-1.418,1.952,1.952,0,0,1,1.418-.6,1.782,1.782,0,0,1,.875.111,2.26,2.26,0,0,1,1.2,1.122,2.776,2.776,0,0,1,.148,1.516c-.031.32.136.524.425.524.376,0,.561-.376.561-1.14A3.133,3.133,0,0,0,247.113-156.567Z" transform="translate(-223.387 -333.57)" fill="#8967b3" stroke="#8967b3" stroke-width="1"/>
  </g>
</svg>
